<svg width="60" height="50" viewBox="0 0 60 50" fill="none" xmlns="http://www.w3.org/2000/svg">
<path d="M0 25L14.5 0H45.5L60 25L45.5 50H14.5L0 25Z" fill="#69C9CA"/>
<path d="M30.409 24.672C33.7445 24.672 36.4487 21.3876 36.4487 17.336C36.4487 13.2844 35.5609 10 30.409 10C25.2571 10 24.3691 13.2844 24.3691 17.336C24.3691 21.3876 27.0733 24.672 30.409 24.672Z" fill="#575757"/>
<path d="M19.0012 35.8725C19.0002 35.627 18.9991 35.8033 19.0012 35.8725V35.8725Z" fill="#575757"/>
<path d="M41.8164 36.0659C41.8197 35.9983 41.8175 35.5968 41.8164 36.0659V36.0659Z" fill="#575757"/>
<path d="M41.8036 35.5769C41.6917 28.519 40.77 26.5079 33.7163 25.2349C33.7163 25.2349 32.7233 26.5001 30.409 26.5001C28.0948 26.5001 27.1017 25.2349 27.1017 25.2349C20.1249 26.494 19.1471 28.4753 19.0185 35.3476C19.008 35.9088 19.0031 35.9383 19.0012 35.8731C19.0016 35.9952 19.0022 36.221 19.0022 36.6147C19.0022 36.6147 20.6815 40 30.409 40C40.1364 40 41.8159 36.6147 41.8159 36.6147C41.8159 36.3617 41.8161 36.1858 41.8164 36.0662C41.8145 36.1065 41.8107 36.0284 41.8036 35.5769Z" fill="#575757"/>
</svg>
