<svg width="60" height="50" viewBox="0 0 60 50" fill="none" xmlns="http://www.w3.org/2000/svg">
<path d="M0 25L14.5 0H45.5L60 25L45.5 50H14.5L0 25Z" fill="#69C9CA"/>
<path d="M29.5343 21.84C32.7986 21.84 35.4543 19.1844 35.4543 15.92C35.4543 12.6557 32.7986 10 29.5343 10C26.2699 10 23.6143 12.6557 23.6143 15.92C23.6143 19.1844 26.2699 21.84 29.5343 21.84Z" fill="#575757"/>
<path d="M37.4782 24.709C37.4757 24.7082 37.4709 24.7063 37.4683 24.7057C36.6975 24.5175 34.3371 24.1873 34.3371 24.1873C34.0706 24.1052 33.7859 24.2463 33.69 24.5093L30.1371 34.2577C29.9322 34.82 29.1368 34.82 28.9318 34.2577L25.3789 24.5093C25.3015 24.297 25.1011 24.1638 24.8864 24.1638C24.8355 24.1638 22.4085 24.5041 21.6005 24.705C19.3926 25.254 18 27.4251 18 29.6878V37.7991C18 39.0147 18.9855 40.0001 20.201 40.0001H38.8659C40.0815 40.0001 41.0669 39.0147 41.0669 37.7991V29.6608C41.0668 27.408 39.6196 25.4087 37.4782 24.709Z" fill="#575757"/>
<path d="M30.8743 24.0015C30.7325 23.847 30.5252 23.7693 30.3155 23.7693H28.7514C28.5417 23.7693 28.3343 23.8471 28.1926 24.0015C27.9731 24.2407 27.9412 24.5863 28.097 24.8563L28.9332 26.1168L28.5418 29.4188L29.3126 31.4693C29.3877 31.6756 29.6794 31.6756 29.7545 31.4693L30.5253 29.4188L30.1339 26.1168L30.9701 24.8563C31.1257 24.5863 31.0938 24.2407 30.8743 24.0015Z" fill="#575757"/>
</svg>
