<svg width="60" height="50" viewBox="0 0 60 50" fill="none" xmlns="http://www.w3.org/2000/svg">
<path d="M0 25L14.5 0H45.5L60 25L45.5 50H14.5L0 25Z" fill="#69C9CA"/>
<path d="M39.6787 32.5562L34.89 31.3588L34.6137 30.2525C37.9174 29.6963 39.6174 28.7063 39.6924 28.6625C39.8699 28.5588 39.9799 28.37 39.9949 28.165C40.0087 27.96 39.9174 27.7588 39.7562 27.63C39.7337 27.6125 37.5 25.7675 37.5 19.375C37.5 13.9837 36.2387 11.25 33.75 11.25H33.3812C32.4837 10.3825 31.81 10 30 10C27.6512 10 22.5 12.3613 22.5 19.375C22.5 25.7675 20.2662 27.6125 20.25 27.625C20.0838 27.75 19.99 27.9487 20 28.1563C20.0112 28.365 20.1237 28.5525 20.3025 28.66C20.3775 28.705 22.0612 29.7 25.385 30.255L25.1087 31.3587L20.32 32.5562C17.1875 33.34 15 36.1425 15 39.375C15 39.72 15.28 40 15.625 40H44.375C44.72 40 45 39.7175 45 39.3725C44.9999 36.1425 42.8125 33.34 39.6787 32.5562Z" fill="#575757"/>
</svg>
