<svg width="60" height="50" viewBox="0 0 60 50" fill="none" xmlns="http://www.w3.org/2000/svg">
<path d="M0 25L14.5 0H45.5L60 25L45.5 50H14.5L0 25Z" fill="#69C9CA"/>
<path d="M26.6141 17.7747H33.392C34.0741 17.7747 34.6272 17.2216 34.6272 16.5395V15.7038C34.6272 15.0217 34.0741 14.4687 33.392 14.4687H33.011V13.9463C33.011 13.424 32.587 13 32.0647 13H27.9414C27.4191 13 26.995 13.424 26.995 13.9463V14.4687H26.6141C25.932 14.4687 25.3789 15.0217 25.3789 15.7038V16.5395C25.3789 17.2278 25.932 17.7747 26.6141 17.7747Z" fill="#575757"/>
<path d="M41.5526 16.2322H35.764V16.5394C35.764 17.8483 34.6948 18.9176 33.3859 18.9176H26.6141C25.3052 18.9176 24.236 17.8483 24.236 16.5394V16.2322H18.4474C16.5424 16.2322 15 17.7746 15 19.6795V32.9221C15 34.827 16.5424 36.3694 18.4474 36.3694H41.5526C43.4576 36.3694 45 34.827 45 32.9221V19.6795C45 17.7807 43.4576 16.2322 41.5526 16.2322ZM23.6338 32.2707C20.34 32.2707 17.6669 29.5976 17.6669 26.3039C17.6669 23.0101 20.34 20.3371 23.6338 20.3371C26.9275 20.3371 29.6006 23.0101 29.6006 26.3039C29.6006 29.5976 26.9336 32.2707 23.6338 32.2707ZM41.6325 29.6529H31.5608V28.3686H41.6264V29.6529H41.6325ZM41.6325 26.943H31.5608V25.6586H41.6264V26.943H41.6325ZM41.6325 24.233H31.5608V22.9487H41.6264V24.233H41.6325Z" fill="#575757"/>
<path d="M23.6522 21.4863C20.9914 21.4863 18.8345 23.6432 18.8345 26.304C18.8345 27.447 19.2339 28.4978 19.8976 29.3212C19.9406 28.9341 20.1065 28.4917 20.5981 28.3688C21.5444 28.1291 22.3126 27.5883 22.3126 27.5883L23.0254 29.8374L23.1237 30.1447L23.4432 29.2414C22.6444 28.1291 23.6522 28.1721 23.6522 28.1721C23.6522 28.1721 24.66 28.1291 23.8611 29.2414L24.1745 30.1385L24.2728 29.8374V29.8436L24.3834 29.4872L24.9795 27.5945C24.9795 27.5945 25.7476 28.1352 26.694 28.3749C27.1856 28.4978 27.3515 28.9402 27.3945 29.3274C28.0581 28.5039 28.4576 27.4531 28.4576 26.3102C28.4699 23.6432 26.313 21.4863 23.6522 21.4863ZM25.5571 25.7387C25.4342 26.1811 25.3113 26.3102 25.2253 26.3163C25.1454 26.8448 24.7214 27.5146 24.0639 27.7543C23.7874 27.8526 23.4863 27.8526 23.2097 27.7543C22.5399 27.5146 22.1282 26.8448 22.0483 26.3163C21.9623 26.3102 21.8394 26.1873 21.7165 25.7387C21.5444 25.1303 21.7288 25.0382 21.8824 25.0566C21.8517 24.9706 21.8332 24.8907 21.8148 24.8046C21.7595 24.522 21.7472 24.2577 21.8087 23.9996C21.8885 23.6617 22.0729 23.3913 22.2757 23.1762C22.4047 23.041 22.5522 22.9181 22.7058 22.8198C22.8349 22.7338 22.9762 22.6539 23.1237 22.6047C23.2466 22.5617 23.3695 22.5371 23.5047 22.531C23.9225 22.4941 24.2359 22.5986 24.4633 22.7338C24.8013 22.9181 24.9303 23.1701 24.9303 23.1701C24.9303 23.1701 25.7046 23.2254 25.4465 24.8046C25.4342 24.8845 25.4096 24.9706 25.3789 25.0566C25.5448 25.0443 25.7292 25.1303 25.5571 25.7387Z" fill="#575757"/>
</svg>
