<svg width="300" height="222" viewBox="0 0 300 222" fill="none" xmlns="http://www.w3.org/2000/svg">
<path d="M50.5254 11.4336V17H48.6504V2.78125H53.8945C55.4505 2.78125 56.668 3.17839 57.5469 3.97266C58.4323 4.76693 58.875 5.81836 58.875 7.12695C58.875 8.50716 58.4421 9.57161 57.5762 10.3203C56.7168 11.0625 55.4831 11.4336 53.875 11.4336H50.5254ZM50.5254 9.90039H53.8945C54.8971 9.90039 55.6654 9.66602 56.1992 9.19727C56.7331 8.72201 57 8.03841 57 7.14648C57 6.30013 56.7331 5.62305 56.1992 5.11523C55.6654 4.60742 54.9329 4.34375 54.002 4.32422H50.5254V9.90039ZM69.3047 10.4277H63.1426V15.4668H70.3008V17H61.2676V2.78125H70.2031V4.32422H63.1426V8.89453H69.3047V10.4277ZM80.6719 10.4277H74.5098V15.4668H81.668V17H72.6348V2.78125H81.5703V4.32422H74.5098V8.89453H80.6719V10.4277ZM94.4609 12.4883C94.2852 13.9922 93.7285 15.1543 92.791 15.9746C91.86 16.7884 90.6198 17.1953 89.0703 17.1953C87.3906 17.1953 86.043 16.5931 85.0273 15.3887C84.0182 14.1842 83.5137 12.5729 83.5137 10.5547V9.1875C83.5137 7.86589 83.748 6.70378 84.2168 5.70117C84.6921 4.69857 85.3626 3.93034 86.2285 3.39648C87.0944 2.85612 88.097 2.58594 89.2363 2.58594C90.7467 2.58594 91.9577 3.00911 92.8691 3.85547C93.7806 4.69531 94.3112 5.86068 94.4609 7.35156H92.5762C92.4134 6.21875 92.0586 5.39844 91.5117 4.89062C90.9714 4.38281 90.2129 4.12891 89.2363 4.12891C88.0384 4.12891 87.0977 4.57161 86.4141 5.45703C85.737 6.34245 85.3984 7.60221 85.3984 9.23633V10.6133C85.3984 12.1562 85.7207 13.3835 86.3652 14.2949C87.0098 15.2064 87.9115 15.6621 89.0703 15.6621C90.112 15.6621 90.9095 15.4277 91.4629 14.959C92.0228 14.4837 92.3939 13.6602 92.5762 12.4883H94.4609ZM106.561 4.32422H101.99V17H100.125V4.32422H95.5645V2.78125H106.561V4.32422ZM110.545 11.4336V17H108.67V2.78125H113.914C115.47 2.78125 116.688 3.17839 117.566 3.97266C118.452 4.76693 118.895 5.81836 118.895 7.12695C118.895 8.50716 118.462 9.57161 117.596 10.3203C116.736 11.0625 115.503 11.4336 113.895 11.4336H110.545ZM110.545 9.90039H113.914C114.917 9.90039 115.685 9.66602 116.219 9.19727C116.753 8.72201 117.02 8.03841 117.02 7.14648C117.02 6.30013 116.753 5.62305 116.219 5.11523C115.685 4.60742 114.952 4.34375 114.021 4.32422H110.545V9.90039ZM139.041 20.4863H137.176V17H126.971V20.4961H125.096L125.086 15.4668H126.248C126.86 14.7767 127.345 13.8522 127.703 12.6934C128.068 11.528 128.296 10.252 128.387 8.86523L128.699 2.78125H137.205V15.4668H139.061L139.041 20.4863ZM128.387 15.4668H135.32V4.32422H130.506L130.301 8.50391C130.216 10.138 129.998 11.5312 129.646 12.6836C129.301 13.8359 128.882 14.7637 128.387 15.4668ZM151.99 10.3496C151.99 11.7428 151.756 12.9603 151.287 14.002C150.818 15.0371 150.154 15.8281 149.295 16.375C148.436 16.9219 147.433 17.1953 146.287 17.1953C145.167 17.1953 144.174 16.9219 143.309 16.375C142.443 15.8216 141.769 15.0371 141.287 14.0215C140.812 12.9993 140.568 11.8177 140.555 10.4766V9.45117C140.555 8.08398 140.792 6.8763 141.268 5.82812C141.743 4.77995 142.413 3.97917 143.279 3.42578C144.152 2.86589 145.148 2.58594 146.268 2.58594C147.407 2.58594 148.41 2.86263 149.275 3.41602C150.148 3.96289 150.818 4.76042 151.287 5.80859C151.756 6.85026 151.99 8.06445 151.99 9.45117V10.3496ZM150.125 9.43164C150.125 7.74544 149.786 6.45312 149.109 5.55469C148.432 4.64974 147.485 4.19727 146.268 4.19727C145.083 4.19727 144.148 4.64974 143.465 5.55469C142.788 6.45312 142.439 7.70312 142.42 9.30469V10.3496C142.42 11.9837 142.762 13.2695 143.445 14.207C144.135 15.138 145.083 15.6035 146.287 15.6035C147.498 15.6035 148.436 15.1641 149.1 14.2852C149.764 13.3997 150.105 12.1335 150.125 10.4863V9.43164ZM165.242 2.78125V17H163.367V4.32422H158.27L158.016 9.95898C157.918 11.847 157.723 13.2663 157.43 14.2168C157.143 15.1673 156.72 15.8672 156.16 16.3164C155.6 16.7591 154.852 16.987 153.914 17H153.299V15.4668L153.689 15.4473C154.295 15.4017 154.76 15.2064 155.086 14.8613C155.411 14.5098 155.659 13.9531 155.828 13.1914C155.997 12.4297 156.118 11.2578 156.189 9.67578L156.482 2.78125H165.242ZM178.816 10.5156H177.293V17H175.418V10.5156H173.807L169.783 17H167.439L172.225 9.5L167.811 2.78125H170.027L173.807 8.95312H175.418V2.78125H177.293V8.95312H178.836L182.615 2.78125H184.822L180.408 9.49023L185.193 17H182.859L178.816 10.5156ZM197.918 17H196.033V10.4277H188.865V17H186.99V2.78125H188.865V8.89453H196.033V2.78125H197.918V17ZM210.213 2.78125H212.088V17H210.213V6.04297L203.211 17H201.326V2.78125H203.211V13.7383L210.213 2.78125ZM219.197 10.6133H217.469V17H215.594V2.78125H217.469V9.05078H218.934L223.904 2.78125H226.238L220.809 9.67578L226.639 17H224.344L219.197 10.6133ZM238.982 10.3496C238.982 11.7428 238.748 12.9603 238.279 14.002C237.811 15.0371 237.146 15.8281 236.287 16.375C235.428 16.9219 234.425 17.1953 233.279 17.1953C232.16 17.1953 231.167 16.9219 230.301 16.375C229.435 15.8216 228.761 15.0371 228.279 14.0215C227.804 12.9993 227.56 11.8177 227.547 10.4766V9.45117C227.547 8.08398 227.785 6.8763 228.26 5.82812C228.735 4.77995 229.406 3.97917 230.271 3.42578C231.144 2.86589 232.14 2.58594 233.26 2.58594C234.399 2.58594 235.402 2.86263 236.268 3.41602C237.14 3.96289 237.811 4.76042 238.279 5.80859C238.748 6.85026 238.982 8.06445 238.982 9.45117V10.3496ZM237.117 9.43164C237.117 7.74544 236.779 6.45312 236.102 5.55469C235.424 4.64974 234.477 4.19727 233.26 4.19727C232.075 4.19727 231.141 4.64974 230.457 5.55469C229.78 6.45312 229.432 7.70312 229.412 9.30469V10.3496C229.412 11.9837 229.754 13.2695 230.438 14.207C231.128 15.138 232.075 15.6035 233.279 15.6035C234.49 15.6035 235.428 15.1641 236.092 14.2852C236.756 13.3997 237.098 12.1335 237.117 10.4863V9.43164ZM241.795 17V2.78125H246.443C247.986 2.78125 249.145 3.10026 249.92 3.73828C250.701 4.3763 251.092 5.32031 251.092 6.57031C251.092 7.23438 250.903 7.82357 250.525 8.33789C250.148 8.8457 249.633 9.23958 248.982 9.51953C249.751 9.73438 250.356 10.1445 250.799 10.75C251.248 11.349 251.473 12.0651 251.473 12.8984C251.473 14.1745 251.059 15.1771 250.232 15.9062C249.406 16.6354 248.237 17 246.727 17H241.795ZM243.67 10.3496V15.4668H246.766C247.638 15.4668 248.325 15.2422 248.826 14.793C249.334 14.3372 249.588 13.7122 249.588 12.918C249.588 11.2057 248.657 10.3496 246.795 10.3496H243.67ZM243.67 8.8457H246.502C247.322 8.8457 247.977 8.64062 248.465 8.23047C248.96 7.82031 249.207 7.26367 249.207 6.56055C249.207 5.7793 248.979 5.21289 248.523 4.86133C248.068 4.50326 247.374 4.32422 246.443 4.32422H243.67V8.8457Z" fill="#69C9CA" fill-opacity="0.7"/>
<rect x="0.5" y="36.5" width="5" height="5" stroke="white" stroke-opacity="0.3"/>
<rect x="0.5" y="56.5" width="5" height="5" stroke="white" stroke-opacity="0.3"/>
<rect x="0.5" y="76.5" width="5" height="5" stroke="white" stroke-opacity="0.3"/>
<rect x="0.5" y="96.5" width="5" height="5" stroke="white" stroke-opacity="0.3"/>
<rect x="0.5" y="116.5" width="5" height="5" stroke="white" stroke-opacity="0.3"/>
<rect x="0.5" y="136.5" width="5" height="5" stroke="white" stroke-opacity="0.3"/>
<rect x="0.5" y="156.5" width="5" height="5" stroke="white" stroke-opacity="0.3"/>
<rect x="0.5" y="176.5" width="5" height="5" stroke="white" stroke-opacity="0.3"/>
<rect x="0.5" y="196.5" width="5" height="5" stroke="white" stroke-opacity="0.3"/>
<rect x="0.5" y="216.5" width="5" height="5" stroke="white" stroke-opacity="0.3"/>
<line x1="11" y1="41.5" x2="300" y2="41.5" stroke="white" stroke-opacity="0.3" stroke-dasharray="3 3"/>
<line x1="11" y1="61.5" x2="300" y2="61.5" stroke="white" stroke-opacity="0.3" stroke-dasharray="3 3"/>
<line x1="11" y1="81.5" x2="300" y2="81.5" stroke="white" stroke-opacity="0.3" stroke-dasharray="3 3"/>
<line x1="11" y1="101.5" x2="300" y2="101.5" stroke="white" stroke-opacity="0.3" stroke-dasharray="3 3"/>
<line x1="11" y1="121.5" x2="300" y2="121.5" stroke="white" stroke-opacity="0.3" stroke-dasharray="3 3"/>
<line x1="11" y1="141.5" x2="300" y2="141.5" stroke="white" stroke-opacity="0.3" stroke-dasharray="3 3"/>
<line x1="11" y1="161.5" x2="300" y2="161.5" stroke="white" stroke-opacity="0.3" stroke-dasharray="3 3"/>
<line x1="11" y1="181.5" x2="300" y2="181.5" stroke="white" stroke-opacity="0.3" stroke-dasharray="3 3"/>
<line x1="11" y1="201.5" x2="300" y2="201.5" stroke="white" stroke-opacity="0.3" stroke-dasharray="3 3"/>
<line x1="11" y1="221.5" x2="300" y2="221.5" stroke="white" stroke-opacity="0.3" stroke-dasharray="3 3"/>
</svg>
