<svg width="60" height="50" viewBox="0 0 60 50" fill="none" xmlns="http://www.w3.org/2000/svg">
<path d="M0 25L14.5 0H45.5L60 25L45.5 50H14.5L0 25Z" fill="#575757"/>
<path d="M31.7799 11.8625C30.0974 11.8625 28.7291 13.2146 28.7291 14.8773C28.7291 15.4315 28.273 15.8822 27.7121 15.8822C27.1513 15.8822 26.6952 15.4315 26.6952 14.8773V13.3699H25.6782V14.8773C25.6782 15.9857 26.5904 16.8871 27.7121 16.8871C28.8338 16.8871 29.746 15.9857 29.746 14.8773C29.746 13.7688 30.6582 12.8675 31.7799 12.8675C32.9016 12.8675 33.8138 13.7688 33.8138 14.8773V16.3846H34.8308V14.8773C34.8308 13.2146 33.4625 11.8625 31.7799 11.8625Z" fill="#69C9CA"/>
<path d="M22.6271 20.4044L20.5932 18.3946L22.6271 16.3848L19.5763 17.3897L18.0509 15.3799V17.3897H15L17.0339 19.3995L15.5085 20.9068H17.5424L19.0678 22.4142L20.0848 20.4044H20.3883C21.1536 21.1254 22.1187 22.483 22.1187 23.4191H23.1356C23.1356 22.4062 22.4619 21.256 21.7658 20.4044H22.6271Z" fill="#69C9CA"/>
<path d="M26.844 12.7203L27.5629 12.0098L26.9055 11.3601L27.5629 10.7105L26.844 10L26.1865 10.6497L25.529 10L24.8101 10.7105L25.4675 11.3601L24.8101 12.0098L25.529 12.7203L26.1865 12.0706L26.844 12.7203Z" fill="#69C9CA"/>
<path d="M24.1524 25.073V23.9214H21.1016V25.073C21.5963 24.9795 22.1053 24.9263 22.627 24.9263C23.1487 24.9263 23.6577 24.9795 24.1524 25.073Z" fill="#69C9CA"/>
<path d="M36.8645 18.1705V16.8872H31.7798V18.177C32.6071 17.9931 33.4578 17.8921 34.3222 17.8921C35.1952 17.8921 36.0454 17.9901 36.8645 18.1705Z" fill="#69C9CA"/>
<path d="M34.322 18.897C30.5872 18.897 27.0945 20.857 25.1694 24.0175V25.3339C28.413 26.392 30.7627 29.4108 30.7627 32.9656C30.7627 35.0478 29.9506 36.9415 28.6311 38.371C30.3345 39.4347 32.2876 39.9999 34.322 39.9999C40.2096 39.9999 45 35.2663 45 29.4484C45 23.6301 40.2096 18.897 34.322 18.897ZM34.322 20.9068V19.9019C39.6493 19.9019 43.983 24.1843 43.983 29.4484H42.9661C42.9661 24.7385 39.0884 20.9068 34.322 20.9068Z" fill="#69C9CA"/>
<path d="M22.627 25.9314C18.7015 25.9314 15.5083 29.0868 15.5083 32.9657C15.5083 36.8446 18.7015 40 22.627 40C26.5524 40 29.7456 36.8446 29.7456 32.9657C29.7456 29.0868 26.5524 25.9314 22.627 25.9314ZM22.627 27.9412V26.9363C25.9915 26.9363 28.7287 29.641 28.7287 32.9657H27.7117C27.7117 30.1952 25.4307 27.9412 22.627 27.9412Z" fill="#69C9CA"/>
</svg>
