<svg width="60" height="50" viewBox="0 0 60 50" fill="none" xmlns="http://www.w3.org/2000/svg">
<path d="M0 25L14.5 0H45.5L60 25L45.5 50H14.5L0 25Z" fill="#575757"/>
<path d="M34.6875 11.875H32.6512C32.265 10.7837 31.2225 10 30 10C28.7775 10 27.735 10.7837 27.3469 11.875H25.3125C24.795 11.875 24.375 12.295 24.375 12.8125V16.5625C24.375 17.08 24.795 17.5 25.3125 17.5H34.6875C35.205 17.5 35.625 17.08 35.625 16.5625V12.8125C35.625 12.295 35.205 11.875 34.6875 11.875Z" fill="#69C9CA"/>
<path d="M39.375 13.75H37.5V16.5625C37.5 18.1131 36.2381 19.375 34.6875 19.375H25.3125C23.7619 19.375 22.5 18.1131 22.5 16.5625V13.75H20.625C19.5919 13.75 18.75 14.5919 18.75 15.625V38.125C18.75 39.1769 19.5731 40 20.625 40H39.375C40.4269 40 41.25 39.1769 41.25 38.125V15.625C41.25 14.5731 40.4269 13.75 39.375 13.75ZM29.7262 30.3512L25.9763 34.1012C25.7925 34.2831 25.5525 34.375 25.3125 34.375C25.0725 34.375 24.8325 34.2831 24.6487 34.1012L22.7737 32.2262C22.4081 31.8606 22.4081 31.2663 22.7737 30.9006C23.1394 30.535 23.7338 30.535 24.0994 30.9006L25.3125 32.1119L28.3988 29.0256C28.7644 28.66 29.3588 28.66 29.7244 29.0256C30.09 29.3913 30.0919 29.9837 29.7262 30.3512ZM29.7262 22.8512L25.9763 26.6012C25.7925 26.7831 25.5525 26.875 25.3125 26.875C25.0725 26.875 24.8325 26.7831 24.6487 26.6012L22.7737 24.7262C22.4081 24.3606 22.4081 23.7662 22.7737 23.4006C23.1394 23.035 23.7338 23.035 24.0994 23.4006L25.3125 24.6119L28.3988 21.5256C28.7644 21.16 29.3588 21.16 29.7244 21.5256C30.09 21.8912 30.0919 22.4838 29.7262 22.8512ZM36.5625 32.5H32.8125C32.295 32.5 31.875 32.08 31.875 31.5625C31.875 31.045 32.295 30.625 32.8125 30.625H36.5625C37.08 30.625 37.5 31.045 37.5 31.5625C37.5 32.08 37.08 32.5 36.5625 32.5ZM36.5625 25H32.8125C32.295 25 31.875 24.58 31.875 24.0625C31.875 23.545 32.295 23.125 32.8125 23.125H36.5625C37.08 23.125 37.5 23.545 37.5 24.0625C37.5 24.58 37.08 25 36.5625 25Z" fill="#69C9CA"/>
</svg>
