<svg width="254" height="436" viewBox="0 0 254 436" fill="none" xmlns="http://www.w3.org/2000/svg">
<path opacity="0.29" d="M169.109 137.852C197.618 118.471 204.945 79.7566 185.474 51.3801C166.003 23.0037 127.106 15.7109 98.5962 35.0913C70.0864 54.4717 62.7594 93.1863 82.2308 121.563C101.702 149.939 140.599 157.232 169.109 137.852Z" stroke="white" stroke-miterlimit="10"/>
<path opacity="0.29" d="M194.623 204.919C166.105 224.13 127.215 216.962 107.915 188.576C88.614 160.191 95.8157 121.483 124.046 102.273C152.277 83.0625 191.455 90.2305 210.755 118.616C230.344 147.001 223.142 185.709 194.623 204.919Z" fill="url(#paint0_linear)"/>
<path opacity="0.54" d="M-73.5696 160.764C-72.4173 125.211 -42.4581 96.5385 -6.73757 97.3986C28.983 98.2588 57.2138 127.504 56.0615 163.058C54.9092 198.611 24.95 227.284 -10.7706 226.423C-46.7792 225.85 -74.7219 196.318 -73.5696 160.764Z" stroke="white" stroke-miterlimit="10"/>
<path opacity="0.54" d="M124.335 358.029C125.487 322.475 155.446 293.803 191.167 294.663C226.887 295.523 255.118 324.769 253.966 360.322C252.814 395.876 222.854 424.548 187.134 423.688C151.413 422.828 123.183 393.582 124.335 358.029Z" fill="url(#paint1_linear)"/>
<g opacity="0.54">
<path opacity="0.54" d="M-35.2562 432.863C-68.3842 424.261 -87.6848 391.288 -78.4666 359.175C-57.1495 285.488 63.2635 314.447 41.3702 390.141C32.152 422.254 -2.12828 441.465 -35.2562 432.863Z" fill="url(#paint2_linear)"/>
<path opacity="0.54" d="M-226.534 222.122C-226.246 226.423 -223.653 230.437 -219.332 232.444C-159.99 260.543 -100.359 296.957 -78.4661 388.994C-61.182 461.248 9.39493 411.932 32.4405 371.791C41.9467 355.161 35.3212 335.091 17.749 326.776C-23.1569 307.852 -106.121 284.628 -125.709 167.072C-132.623 124.924 -204.352 199.758 -204.352 199.758L-226.534 222.122Z" fill="url(#paint3_linear)"/>
<path opacity="0.54" d="M-219.62 232.444C-160.278 260.543 -101.224 296.957 -78.7543 388.994C-68.3838 431.429 9.1068 411.932 32.1523 371.791" fill="url(#paint4_linear)"/>
</g>
<path d="M167.832 101.126C140.466 98.5455 115.404 114.602 105.033 139.26C105.033 139.547 104.745 139.833 104.745 140.12C104.169 141.554 103.593 143.274 103.017 144.994L82.8519 201.192C90.3417 184.849 96.1031 168.219 101.288 151.589C96.1031 168.506 90.0537 185.709 82.5639 202.052L82.8519 201.192C63.2632 243.913 32.1517 283.194 -26.6144 311.006C-31.5116 312.727 -36.4087 315.02 -40.7297 317.888C-53.4048 325.342 -60.0304 333.657 -62.623 342.832C-66.0798 349.714 -68.3844 357.455 -68.9605 365.483C-72.4174 400.463 -47.3553 431.429 -13.3632 434.583C9.68236 436.877 26.9665 427.702 38.2012 413.653C42.2342 409.638 45.4029 404.191 47.1313 398.17C49.4359 392.435 51.1643 386.127 51.7405 379.819C63.5513 333.084 83.7161 261.977 181.66 224.703C182.812 224.13 184.252 223.843 185.405 223.269H185.693C187.709 222.409 189.438 221.549 190.878 220.689C208.45 210.94 221.413 192.59 223.43 170.513C226.598 135.533 201.824 104.567 167.832 101.126Z" stroke="white" stroke-width="2" stroke-miterlimit="10"/>
<defs>
<linearGradient id="paint0_linear" x1="198.357" y1="443.277" x2="92.8941" y2="-352.545" gradientUnits="userSpaceOnUse">
<stop stop-color="#81CCE0"/>
<stop offset="0.5099" stop-color="#AEDDEA"/>
<stop offset="1"/>
</linearGradient>
<linearGradient id="paint1_linear" x1="-391.535" y1="49.9218" x2="339.668" y2="442.808" gradientUnits="userSpaceOnUse">
<stop stop-color="#81CCE0"/>
<stop offset="0.5099" stop-color="#AEDDEA"/>
<stop offset="1"/>
</linearGradient>
<linearGradient id="paint2_linear" x1="-444.866" y1="148.679" x2="286.359" y2="541.577" gradientUnits="userSpaceOnUse">
<stop stop-color="#81CCE0"/>
<stop offset="0.5099" stop-color="#AEDDEA"/>
<stop offset="1"/>
</linearGradient>
<linearGradient id="paint3_linear" x1="-425.625" y1="113.099" x2="305.522" y2="505.955" gradientUnits="userSpaceOnUse">
<stop stop-color="#81CCE0"/>
<stop offset="0.5099" stop-color="#AEDDEA"/>
<stop offset="1"/>
</linearGradient>
<linearGradient id="paint4_linear" x1="-448.895" y1="156.368" x2="282.275" y2="549.237" gradientUnits="userSpaceOnUse">
<stop stop-color="#81CCE0"/>
<stop offset="0.5099" stop-color="#AEDDEA"/>
<stop offset="1"/>
</linearGradient>
</defs>
</svg>
