<svg width="314" height="375" viewBox="0 0 314 375" fill="none" xmlns="http://www.w3.org/2000/svg">
<path d="M220.146 46.0322C208.008 50.3258 201.673 63.7327 205.995 75.9775C210.317 88.2222 223.659 94.6679 235.797 90.3743C247.934 86.0807 254.269 72.6738 249.948 60.429C245.626 48.1843 232.283 41.7386 220.146 46.0322Z" stroke="white" stroke-opacity="0.5" stroke-width="0.772562" stroke-miterlimit="10"/>
<path d="M101.114 164.455C88.9763 168.749 82.6406 182.156 86.9625 194.401C91.2843 206.645 104.627 213.091 116.764 208.797C128.902 204.504 135.237 191.097 130.915 178.852C126.593 166.607 113.251 160.162 101.114 164.455Z" stroke="white" stroke-opacity="0.5" stroke-width="0.772562" stroke-miterlimit="10"/>
<path d="M42.6496 259.681C30.5123 263.975 24.1767 277.382 28.4986 289.626C32.8204 301.871 46.1631 308.317 58.3004 304.023C70.4376 299.73 76.7733 286.323 72.4515 274.078C68.1296 261.833 54.7868 255.388 42.6496 259.681Z" stroke="white" stroke-opacity="0.5" stroke-width="0.772562" stroke-miterlimit="10"/>
<path d="M40.3624 357.703C46.4324 370.161 61.7688 375.459 74.5461 369.353C77.4901 367.892 80.0647 366.122 82.2548 363.872C85.3074 361.717 87.5453 358.095 88.5839 352.528C89.0946 350.6 89.251 348.533 89.2381 346.481C91.4875 320.105 102.075 302.904 115.739 289.534L115.431 289.903C120.135 285.205 125.223 280.986 130.511 277.09C125.392 280.97 120.458 285.005 115.909 289.518L131.976 276.275C134.257 275.044 136.169 273.504 137.881 271.64C140.933 269.485 143.171 265.863 144.21 260.295C144.721 258.367 144.877 256.3 144.864 254.249C147.114 227.872 157.701 210.672 171.365 197.301L171.057 197.671C176.393 192.403 181.959 187.798 187.895 183.503C182.129 187.783 176.547 192.218 171.365 197.301L191.102 181.162C199.506 173.909 202.354 161.849 197.345 151.691C191.275 139.233 175.938 133.935 163.161 140.041C154.961 143.855 149.823 151.329 148.673 159.473C148.549 159.997 148.441 160.691 148.517 161.54L148.532 161.709C148.7 201.726 127.945 219.838 111.85 230.86C110.524 231.321 109.03 231.797 107.719 232.428C99.5198 236.242 94.3814 243.716 93.2318 251.86C93.108 252.384 92.9993 253.078 93.0753 253.927L93.0906 254.097C93.4087 297.693 68.5099 315.32 52.2302 326.188C50.1031 327.234 48.0065 328.619 46.1098 330.329C46.1098 330.329 45.9403 330.344 45.9555 330.514C44.0283 331.884 42.4857 333.733 41.4667 335.706C37.3473 341.207 36.352 349.166 40.3624 357.703Z" stroke="white" stroke-opacity="0.5" stroke-width="0.772562" stroke-miterlimit="10"/>
<path d="M110.906 338.552C116.976 351.01 132.312 356.309 145.09 350.203C148.034 348.741 150.608 346.971 152.798 344.722C155.851 342.567 158.089 338.945 159.127 333.377C159.638 331.449 159.794 329.383 159.782 327.331C162.031 300.954 172.619 283.754 186.283 270.383L185.974 270.753C190.693 266.224 195.612 262.02 200.731 258.14C195.766 261.835 190.832 265.87 186.283 270.383L201.717 257.709C204.661 256.248 207.066 254.493 209.256 252.244C212.309 250.088 214.547 246.466 215.586 240.899C216.096 238.971 216.253 236.904 216.24 234.853C218.489 208.476 229.077 191.275 242.741 177.905L242.432 178.275C247.768 173.006 253.335 168.402 259.271 164.107C253.504 168.387 247.923 172.822 242.741 177.905L262.477 161.766C263.896 160.442 265.3 158.947 266.364 157.483C269.248 155.343 271.316 151.736 272.37 146.339C272.88 144.411 273.037 142.344 273.024 140.292C275.273 113.916 285.861 96.7151 299.525 83.3446L299.217 83.7144C304.553 78.4462 310.119 73.8417 316.055 69.5462C310.288 73.8265 304.707 78.2613 299.525 83.3446L319.262 67.206C327.666 59.9522 330.514 47.8927 325.504 37.7347C319.434 25.2766 304.098 19.9785 291.321 26.0844C283.121 29.8983 277.983 37.3728 276.833 45.5164C276.709 46.0407 276.601 46.7348 276.677 47.5833L276.692 47.7531C277.01 91.3493 252.111 108.977 235.831 119.844C233.704 120.89 231.608 122.276 229.711 123.985C229.711 123.985 229.541 124 229.557 124.17C228.431 124.955 227.645 125.71 226.873 126.635C223.28 130.378 220.979 135.203 220.249 140.401C220.125 140.925 220.016 141.619 220.092 142.468L220.107 142.638C220.276 182.655 199.52 200.766 183.44 211.958C181.776 212.449 180.112 212.941 178.478 213.771C170.278 217.585 165.14 225.06 163.99 233.203C163.866 233.728 163.758 234.422 163.834 235.27C163.834 235.27 163.834 235.27 163.849 235.44C164.167 279.036 139.268 296.664 122.989 307.531C120.862 308.577 118.765 309.963 116.868 311.672C116.868 311.672 116.699 311.687 116.714 311.857C114.787 313.227 113.244 315.076 112.225 317.049C107.721 322.072 106.711 329.861 110.906 338.552Z" stroke="white" stroke-opacity="0.5" stroke-width="0.772562" stroke-miterlimit="10"/>
<path d="M240.034 225.878C246.104 238.336 261.441 243.634 274.218 237.529C277.162 236.067 279.737 234.297 281.927 232.048C284.979 229.892 287.217 226.27 288.256 220.703C288.767 218.775 288.923 216.708 288.91 214.657C291.16 188.28 301.747 171.08 315.411 157.709L315.103 158.079C320.439 152.811 326.005 148.206 331.941 143.911C326.175 148.191 320.593 152.626 315.411 157.709L335.148 141.57C336.736 140.231 338.14 138.736 339.343 136.918C342.057 134.793 343.956 131.201 345.025 125.973C345.536 124.045 345.692 121.978 345.679 119.927C347.929 93.5503 358.516 76.3495 372.18 62.9789L371.872 63.3487C377.208 58.0805 382.774 53.476 388.71 49.1806C382.944 53.4608 377.362 57.8956 372.18 62.9789L391.917 46.8404C400.321 39.5866 403.169 27.5271 398.16 17.3691C392.09 4.91098 376.753 -0.387174 363.976 5.7187C355.776 9.53264 350.638 17.0072 349.488 25.1508C349.364 25.6751 349.256 26.3691 349.332 27.2177L349.347 27.3874C349.665 70.9836 324.766 88.6111 308.487 99.4787C306.36 100.525 304.263 101.91 302.366 103.62C302.366 103.62 302.197 103.635 302.212 103.805C301.086 104.59 300.146 105.529 299.39 106.624C295.965 110.352 293.664 115.177 292.904 120.035C292.78 120.56 292.671 121.254 292.747 122.102L292.763 122.272C293.081 165.868 268.182 183.496 251.902 194.363C249.775 195.409 247.679 196.795 245.782 198.504C245.782 198.504 245.612 198.519 245.628 198.689C243.7 200.059 242.158 201.908 241.139 203.881C237.019 209.383 235.839 217.187 240.034 225.878Z" stroke="white" stroke-opacity="0.5" stroke-width="0.772562" stroke-miterlimit="10"/>
</svg>
