<svg width="191" height="556" viewBox="0 0 191 556" fill="none" xmlns="http://www.w3.org/2000/svg">
<path opacity="0.29" d="M162.581 399.71C140.426 426.121 143.918 465.368 170.381 487.37C196.844 509.372 236.256 505.798 258.411 479.386C280.566 452.975 277.074 413.728 250.611 391.726C224.149 369.724 184.736 373.299 162.581 399.71Z" stroke="white" stroke-miterlimit="10"/>
<path opacity="0.29" d="M119.768 342.124C141.978 315.874 181.349 312.181 207.65 334.239C233.951 356.296 237.561 395.501 215.629 421.673C193.696 447.845 154.047 451.616 127.746 429.559C101.168 407.58 97.5575 368.375 119.768 342.124Z" fill="url(#paint0_linear)"/>
<path opacity="0.54" d="M145.707 175.661C154.28 210.185 133.261 245.931 98.6556 254.831C64.0506 263.73 28.9229 243.277 20.3502 208.753C11.7775 174.229 32.7969 138.483 67.4019 129.583C102.007 120.684 137.135 141.137 145.707 175.661Z" fill="url(#paint1_linear)"/>
<g opacity="0.54">
<path opacity="0.54" d="M278.89 60.1968C313.108 59.4524 340.658 85.9237 340.533 119.333C340.087 196.041 216.338 200.965 216.792 122.17C216.917 88.7602 244.671 60.9411 278.89 60.1968Z" fill="url(#paint2_linear)"/>
</g>
<path d="M173.809 434.7C200.845 429.731 220.587 407.457 223.851 380.906C223.773 380.63 223.972 380.276 223.894 380C224.058 378.464 224.144 376.652 224.23 374.84L228.33 315.275C225.574 333.04 224.558 350.61 224.097 368.024C224.48 350.334 225.616 332.134 228.373 314.369L228.33 315.275C235.545 268.834 254.784 222.565 303.756 179.802C308 176.813 312.088 173.272 315.465 169.337C325.631 158.712 329.742 148.907 329.738 139.373C331.19 131.81 331.3 123.734 329.668 115.852C323.469 81.2528 290.922 58.2815 257.355 64.5031C234.556 68.5714 220.423 82.1064 213.439 98.6841C210.651 103.645 209.086 109.749 209.062 116.014C208.406 122.159 208.461 128.699 209.624 134.926C210.986 183.111 210.946 257.022 126.854 319.558C125.901 320.424 124.593 321.092 123.641 321.957L123.364 322.036C121.658 323.412 120.229 324.711 119.077 325.931C104.823 340.096 97.3471 361.282 101.419 383.075C107.895 417.596 140.165 440.646 173.809 434.7Z" stroke="white" stroke-width="2" stroke-miterlimit="10"/>
<defs>
<linearGradient id="paint0_linear" x1="51.2684" y1="113.79" x2="369.454" y2="850.821" gradientUnits="userSpaceOnUse">
<stop stop-color="#81CCE0"/>
<stop offset="0.5099" stop-color="#AEDDEA"/>
<stop offset="1"/>
</linearGradient>
<linearGradient id="paint1_linear" x1="725.982" y1="331.65" x2="-84.5742" y2="152.722" gradientUnits="userSpaceOnUse">
<stop stop-color="#81CCE0"/>
<stop offset="0.5099" stop-color="#AEDDEA"/>
<stop offset="1"/>
</linearGradient>
<linearGradient id="paint2_linear" x1="750.405" y1="222.102" x2="-60.1759" y2="43.1687" gradientUnits="userSpaceOnUse">
<stop stop-color="#81CCE0"/>
<stop offset="0.5099" stop-color="#AEDDEA"/>
<stop offset="1"/>
</linearGradient>
</defs>
</svg>
