<svg width="455" height="647" viewBox="0 0 455 647" fill="none" xmlns="http://www.w3.org/2000/svg">
<path opacity="0.29" d="M420.332 161.515C432.262 129.171 415.716 93.4119 383.376 81.6438C351.036 69.8757 315.148 86.5553 303.219 118.899C291.289 151.242 307.835 187.002 340.175 198.77C372.515 210.538 408.403 193.858 420.332 161.515Z" stroke="white" stroke-miterlimit="10"/>
<path opacity="0.29" d="M480.083 201.25C468.048 233.46 432.238 250.237 400.032 238.363C367.826 226.488 351.182 190.807 362.984 158.764C374.785 126.722 410.828 109.777 443.035 121.652C475.475 133.359 492.119 169.04 480.083 201.25Z" fill="url(#paint0_linear)"/>
<path opacity="0.54" d="M236.201 321.243C216.468 291.645 224.175 250.899 253.739 230.832C283.303 210.765 323.275 218.148 343.007 247.746C362.739 277.343 355.032 318.089 325.469 338.156C295.837 358.624 255.933 350.841 236.201 321.243Z" stroke="white" stroke-miterlimit="10"/>
<g opacity="0.54">
<path opacity="0.54" d="M425.564 520.359C393.609 532.62 358.736 517.013 347.566 485.526C322.071 413.177 436.88 366.735 463.073 441.051C474.242 472.539 457.519 508.098 425.564 520.359Z" fill="url(#paint1_linear)"/>
<path opacity="0.54" d="M176 460.462C144.045 472.723 109.172 457.116 98.0026 425.628C86.8335 394.141 103.724 358.814 135.512 346.32C167.467 334.059 202.34 349.666 213.509 381.154C224.678 412.641 207.72 448.368 176 460.462Z" fill="url(#paint2_linear)"/>
<path opacity="0.54" d="M147.415 460.096C150.15 463.428 154.593 465.186 159.275 464.307C223.894 452.67 293.582 447.63 364.903 509.787C420.972 558.527 449.725 477.37 445.139 431.312C443.206 412.255 426.147 399.777 407.015 403.227C362.731 411.612 281.726 440.948 197.445 356.688C167.316 326.414 152.46 429.004 152.46 429.004L147.415 460.096Z" fill="url(#paint3_linear)"/>
<path opacity="0.54" d="M159.041 464.475C223.659 452.837 292.878 448.132 364.668 509.955C397.776 538.452 449.49 477.538 444.904 431.48" fill="url(#paint4_linear)"/>
</g>
<path d="M397.943 132.375C374.176 146.186 363.119 173.82 369.017 199.912C369.184 200.145 369.116 200.546 369.283 200.779C369.647 202.281 370.179 204.016 370.71 205.75L386.975 263.198C383.567 245.546 378.587 228.666 373.138 212.121C378.754 228.899 383.833 246.413 387.241 264.065L386.975 263.198C395.874 309.346 393.397 359.394 361.752 416.188C358.767 420.434 356.116 425.148 354.267 429.993C348.288 443.427 347.732 454.044 350.956 463.017C352.144 470.626 354.77 478.264 358.968 485.131C376.492 515.602 414.886 526.227 444.377 509.031C464.462 497.499 473.19 479.985 474.164 462.023C475.111 456.412 474.522 450.137 472.428 444.234C470.969 438.228 468.709 432.091 465.51 426.624C447.949 381.731 423.017 312.152 481.037 224.884C481.641 223.747 482.647 222.676 483.251 221.54L483.485 221.373C484.626 219.5 485.532 217.796 486.204 216.258C494.834 198.111 494.713 175.644 483.518 156.508C465.76 126.205 427.601 115.413 397.943 132.375Z" stroke="white" stroke-width="2" stroke-miterlimit="10"/>
<defs>
<linearGradient id="paint0_linear" x1="621.695" y1="393.017" x2="73.2191" y2="-193.182" gradientUnits="userSpaceOnUse">
<stop stop-color="#81CCE0"/>
<stop offset="0.5099" stop-color="#AEDDEA"/>
<stop offset="1"/>
</linearGradient>
<linearGradient id="paint1_linear" x1="-72.9266" y1="527.271" x2="750.446" y2="421.836" gradientUnits="userSpaceOnUse">
<stop stop-color="#81CCE0"/>
<stop offset="0.5099" stop-color="#AEDDEA"/>
<stop offset="1"/>
</linearGradient>
<linearGradient id="paint2_linear" x1="-84.5347" y1="435.127" x2="738.851" y2="329.69" gradientUnits="userSpaceOnUse">
<stop stop-color="#81CCE0"/>
<stop offset="0.5099" stop-color="#AEDDEA"/>
<stop offset="1"/>
</linearGradient>
<linearGradient id="paint3_linear" x1="-77.9567" y1="487.135" x2="745.328" y2="381.712" gradientUnits="userSpaceOnUse">
<stop stop-color="#81CCE0"/>
<stop offset="0.5099" stop-color="#AEDDEA"/>
<stop offset="1"/>
</linearGradient>
<linearGradient id="paint4_linear" x1="-71.735" y1="535.87" x2="751.576" y2="430.442" gradientUnits="userSpaceOnUse">
<stop stop-color="#81CCE0"/>
<stop offset="0.5099" stop-color="#AEDDEA"/>
<stop offset="1"/>
</linearGradient>
</defs>
</svg>
