<svg width="330" height="357" viewBox="0 0 330 357" fill="none" xmlns="http://www.w3.org/2000/svg">
<path d="M219.447 37.4613C207.118 41.1696 200.149 54.2583 203.88 66.6957C207.612 79.133 220.631 86.2094 232.96 82.5011C245.288 78.7927 252.258 65.7041 248.526 53.2667C244.795 40.8293 231.776 33.753 219.447 37.4613Z" stroke="white" stroke-width="0.772562" stroke-miterlimit="10"/>
<path d="M94.8885 150.057C82.5598 153.766 75.5904 166.854 79.3218 179.292C83.0532 191.729 96.0725 198.805 108.401 195.097C120.73 191.389 127.699 178.3 123.968 165.863C120.236 153.425 107.217 146.349 94.8885 150.057Z" stroke="white" stroke-width="0.772562" stroke-miterlimit="10"/>
<path d="M31.9382 242.379C19.6096 246.087 12.6401 259.176 16.3715 271.613C20.1029 284.05 33.1222 291.127 45.4509 287.418C57.7795 283.71 64.749 270.621 61.0176 258.184C57.2862 245.747 44.2669 238.67 31.9382 242.379Z" stroke="white" stroke-width="0.772562" stroke-miterlimit="10"/>
<path d="M24.9663 340.179C30.4336 352.913 45.4992 358.938 58.5539 353.451C61.5643 352.132 64.2207 350.487 66.5158 348.345C69.6679 346.338 72.0765 342.827 73.3802 337.315C73.9824 335.414 74.2375 333.357 74.3227 331.307C77.8307 305.069 89.2287 288.394 103.516 275.692L103.191 276.047C108.114 271.579 113.398 267.607 118.867 263.969C113.568 267.6 108.447 271.394 103.686 275.685L120.368 263.225C122.706 262.104 124.689 260.658 126.488 258.877C129.641 256.871 132.049 253.36 133.353 247.848C133.955 245.947 134.21 243.89 134.295 241.84C137.803 215.602 149.201 198.927 163.489 186.225L163.163 186.579C168.745 181.572 174.525 177.239 180.66 173.233C174.695 177.232 168.908 181.395 163.489 186.225L183.975 171.048C192.716 164.205 196.138 152.295 191.62 141.909C186.152 129.175 171.087 123.15 158.032 128.638C149.659 132.055 144.169 139.275 142.632 147.355C142.483 147.873 142.341 148.561 142.377 149.412L142.384 149.582C140.638 189.561 119.041 206.66 102.437 216.9C101.091 217.297 99.5752 217.701 98.2364 218.268C89.8639 221.686 84.3739 228.906 82.8363 236.985C82.6875 237.503 82.5458 238.191 82.5811 239.042L82.5882 239.213C80.8214 282.774 55.1082 299.191 38.3274 309.268C36.1528 310.211 33.9923 311.494 32.016 313.111C32.016 313.111 31.846 313.118 31.8531 313.288C29.8626 314.565 28.2334 316.338 27.1212 318.26C22.7434 323.558 21.3687 331.46 24.9663 340.179Z" stroke="white" stroke-width="0.772562" stroke-miterlimit="10"/>
<path d="M96.3449 324.424C101.812 337.158 116.878 343.183 129.932 337.695C132.943 336.376 135.599 334.731 137.894 332.589C141.046 330.582 143.455 327.072 144.759 321.56C145.361 319.659 145.616 317.602 145.701 315.552C149.209 289.313 160.607 272.638 174.895 259.937L174.569 260.291C179.499 255.993 184.614 252.029 189.912 248.398C184.777 251.852 179.655 255.646 174.895 259.937L190.918 248.015C193.928 246.696 196.415 245.058 198.71 242.916C201.862 240.91 204.271 237.399 205.574 231.887C206.177 229.986 206.432 227.929 206.517 225.879C210.025 199.641 221.423 182.966 235.711 170.264L235.385 170.618C240.967 165.611 246.747 161.278 252.881 157.272C246.917 161.271 241.13 165.434 235.711 170.264L256.196 155.087C257.677 153.832 259.15 152.407 260.284 150.995C263.266 148.995 265.504 145.492 266.815 140.15C267.417 138.249 267.672 136.192 267.758 134.142C271.266 107.904 282.664 91.2287 296.951 78.5268L296.625 78.8814C302.207 73.8744 307.988 69.5413 314.122 65.5346C308.158 69.5343 302.37 73.6971 296.951 78.5268L317.437 63.3505C326.178 56.5068 329.6 44.5973 325.082 34.2114C319.614 21.4773 304.549 15.4519 291.494 20.9398C283.122 24.3573 277.632 31.5775 276.094 39.6569C275.945 40.1747 275.804 40.8627 275.839 41.714L275.846 41.8842C274.079 85.4458 248.366 101.862 231.585 111.939C229.411 112.882 227.25 114.166 225.274 115.783C225.274 115.783 225.104 115.79 225.111 115.96C223.949 116.691 223.127 117.407 222.313 118.293C218.544 121.861 216.015 126.57 215.037 131.727C214.889 132.245 214.747 132.933 214.782 133.784L214.789 133.955C213.044 173.934 191.446 191.032 174.85 201.443C173.164 201.854 171.478 202.265 169.806 203.016C161.434 206.434 155.944 213.654 154.406 221.733C154.257 222.251 154.116 222.939 154.151 223.791C154.151 223.791 154.151 223.791 154.158 223.961C152.391 267.522 126.678 283.939 109.897 294.016C107.723 294.959 105.562 296.242 103.586 297.859C103.586 297.859 103.416 297.866 103.423 298.037C101.432 299.313 99.8031 301.086 98.6909 303.008C93.9519 307.81 92.5701 315.542 96.3449 324.424Z" stroke="white" stroke-width="0.772562" stroke-miterlimit="10"/>
<path d="M230.713 218.053C236.181 230.787 251.246 236.812 264.301 231.324C267.311 230.005 269.968 228.36 272.263 226.218C275.415 224.211 277.823 220.7 279.127 215.189C279.729 213.288 279.984 211.231 280.07 209.181C283.578 182.942 294.976 166.267 309.263 153.566L308.938 153.92C314.519 148.913 320.3 144.58 326.434 140.573C320.47 144.573 314.682 148.736 309.263 153.566L329.749 138.389C331.4 137.127 332.873 135.701 334.162 133.942C336.974 131.95 339.043 128.453 340.361 123.282C340.963 121.381 341.218 119.324 341.303 117.274C344.811 91.0351 356.209 74.3602 370.497 61.6583L370.171 62.013C375.753 57.0059 381.533 52.6728 387.668 48.6661C381.703 52.6658 375.916 56.8286 370.497 61.6583L390.983 46.482C399.724 39.6383 403.146 27.7288 398.628 17.3429C393.16 4.60878 378.095 -1.41664 365.04 4.0713C356.667 7.4888 351.177 14.7091 349.64 22.7884C349.491 23.3062 349.349 23.9942 349.385 24.8455L349.392 25.0157C347.625 68.5773 321.912 84.994 305.131 95.0708C302.956 96.0138 300.796 97.2973 298.82 98.9143C298.82 98.9143 298.65 98.9214 298.657 99.0916C297.495 99.822 296.51 100.716 295.703 101.772C292.104 105.333 289.575 110.042 288.583 114.859C288.434 115.377 288.293 116.065 288.328 116.916L288.335 117.086C286.568 160.648 260.855 177.064 244.074 187.141C241.9 188.084 239.739 189.368 237.763 190.985C237.763 190.985 237.593 190.992 237.6 191.162C235.61 192.438 233.98 194.212 232.868 196.134C228.49 201.432 226.939 209.171 230.713 218.053Z" stroke="white" stroke-width="0.772562" stroke-miterlimit="10"/>
</svg>
