<svg width="345" height="408" viewBox="0 0 345 408" fill="none" xmlns="http://www.w3.org/2000/svg">
<path d="M184.701 338.887C197.549 338.056 207.291 326.877 206.462 313.918C205.633 300.96 194.546 291.129 181.699 291.96C168.851 292.791 159.109 303.969 159.938 316.928C160.767 329.887 171.854 339.718 184.701 338.887Z" stroke="white" stroke-width="0.772562" stroke-miterlimit="10"/>
<path d="M331.452 257.297C344.299 256.466 354.042 245.288 353.213 232.329C352.384 219.37 341.297 209.539 328.45 210.37C315.602 211.201 305.86 222.38 306.689 235.339C307.518 248.297 318.605 258.128 331.452 257.297Z" stroke="white" stroke-width="0.772562" stroke-miterlimit="10"/>
<path d="M442.467 87.8539C440.014 74.2146 426.697 64.9454 412.74 67.3464C409.51 67.952 406.551 68.9554 403.832 70.5242C400.308 71.7681 397.169 74.6451 394.656 79.7203C393.64 81.4364 392.928 83.3829 392.382 85.3608C383.045 110.131 368.178 123.805 351.393 132.955L351.79 132.683C345.986 135.925 339.942 138.602 333.794 140.912C339.775 138.571 345.62 136.03 351.226 132.924L332.163 141.299C329.633 141.863 327.374 142.825 325.22 144.153C321.696 145.397 318.557 148.274 316.044 153.349C315.028 155.065 314.315 157.012 313.77 158.99C304.432 183.76 289.566 197.434 272.781 206.584L273.178 206.312C266.611 209.931 260.002 212.848 253.122 215.367C259.835 212.817 266.412 210.067 272.781 206.584L249.399 216.747C239.339 221.442 233.319 232.273 235.377 243.41C237.83 257.05 251.148 266.319 265.104 263.918C274.032 262.477 281.009 256.682 284.33 249.158C284.592 248.687 284.885 248.049 285.043 247.211L285.074 247.044C295.795 208.489 320.694 196.705 339.18 190.475C340.581 190.392 342.148 190.34 343.581 190.09C352.508 188.649 359.486 182.854 362.807 175.33C363.069 174.859 363.362 174.221 363.519 173.383L363.551 173.216C375.101 131.176 403.855 120.984 422.477 114.954C424.808 114.526 427.202 113.763 429.492 112.633C429.492 112.633 429.66 112.665 429.691 112.497C431.918 111.703 433.906 110.343 435.423 108.721C440.883 104.548 444.005 97.1595 442.467 87.8539Z" stroke="white" stroke-width="0.772562" stroke-miterlimit="10"/>
<path d="M369.374 87.0988C366.921 73.4595 353.603 64.1904 339.647 66.5914C336.417 67.1969 333.458 68.2004 330.739 69.7692C327.215 71.0131 324.076 73.89 321.563 78.9652C320.547 80.6813 319.834 82.6278 319.289 84.6058C309.951 109.376 295.085 123.05 278.3 132.2L278.697 131.928C272.924 135.003 267.048 137.711 261.066 140.053C266.849 137.847 272.694 135.306 278.3 132.2L260 140.199C256.77 140.805 253.978 141.84 251.259 143.408C247.735 144.652 244.597 147.529 242.083 152.604C241.067 154.32 240.355 156.267 239.809 158.245C230.472 183.015 215.605 196.689 198.82 205.839L199.218 205.567C192.65 209.186 186.041 212.103 179.161 214.622C185.874 212.072 192.451 209.322 198.82 205.839L175.438 216.002C173.713 216.891 171.956 217.948 170.533 219.067C167.177 220.342 164.205 223.251 161.723 228.158C160.708 229.875 159.995 231.821 159.45 233.799C150.112 258.57 135.246 272.243 118.46 281.394L118.858 281.122C112.29 284.74 105.681 287.657 98.8013 290.177C105.514 287.626 112.091 284.876 118.46 281.394L95.0788 291.557C85.019 296.251 78.9981 307.082 81.0567 318.219C83.5099 331.859 96.8275 341.128 110.784 338.727C119.712 337.287 126.689 331.491 130.01 323.967C130.272 323.496 130.565 322.858 130.723 322.021L130.754 321.853C142.304 279.813 171.058 269.622 189.68 263.591C192.011 263.163 194.405 262.4 196.696 261.27C196.696 261.27 196.863 261.302 196.894 261.134C198.191 260.685 199.153 260.172 200.147 259.493C204.623 256.867 208.149 252.85 210.265 248.047C210.527 247.576 210.82 246.937 210.978 246.1L211.01 245.933C221.73 207.378 246.629 195.593 265.146 189.196C266.882 189.176 268.617 189.156 270.415 188.801C279.343 187.361 286.32 181.565 289.641 174.041C289.903 173.57 290.196 172.932 290.354 172.095C290.354 172.095 290.354 172.095 290.385 171.927C301.935 129.887 330.689 119.696 349.311 113.665C351.642 113.237 354.036 112.474 356.327 111.344C356.327 111.344 356.494 111.376 356.525 111.208C358.752 110.414 360.74 109.054 362.257 107.432C367.957 103.824 371.048 96.6034 369.374 87.0988Z" stroke="white" stroke-width="0.772562" stroke-miterlimit="10"/>
<path d="M214.471 160.41C212.017 146.771 198.7 137.501 184.744 139.902C181.513 140.508 178.554 141.511 175.835 143.08C172.311 144.324 169.173 147.201 166.659 152.276C165.643 153.992 164.931 155.939 164.385 157.917C155.048 182.687 140.181 196.361 123.396 205.511L123.794 205.239C117.226 208.858 110.617 211.775 103.737 214.294C110.45 211.744 117.027 208.994 123.396 205.511L100.015 215.674C98.1218 216.532 96.3648 217.588 94.7119 219.011C91.5226 220.318 88.7185 223.258 86.2679 227.998C85.2524 229.714 84.5397 231.66 83.9942 233.638C74.6565 258.409 59.7902 272.082 43.005 281.233L43.4025 280.961C36.8348 284.579 30.226 287.497 23.3458 290.016C30.0588 287.465 36.6361 284.715 43.005 281.233L19.6234 291.396C9.56359 296.091 3.54273 306.921 5.60126 318.059C8.0545 331.698 21.3721 340.967 35.3284 338.566C44.2561 337.126 51.2336 331.331 54.5545 323.806C54.8163 323.336 55.1096 322.697 55.2672 321.86L55.2987 321.693C66.8485 279.653 95.6026 269.461 114.224 263.43C116.556 263.002 118.95 262.239 121.24 261.11C121.24 261.11 121.407 261.141 121.439 260.974C122.735 260.524 123.896 259.876 124.921 259.029C129.23 256.372 132.757 252.354 134.81 247.886C135.072 247.415 135.365 246.777 135.523 245.939L135.554 245.772C147.104 203.732 175.858 193.54 194.48 187.51C196.811 187.082 199.205 186.319 201.496 185.189C201.496 185.189 201.663 185.221 201.694 185.053C203.921 184.259 205.909 182.899 207.426 181.277C212.886 177.104 216.144 169.914 214.471 160.41Z" stroke="white" stroke-width="0.772562" stroke-miterlimit="10"/>
</svg>
